<?xml version="1.0" encoding="UTF-8"?>
<!DOCTYPE svg PUBLIC "-//W3C//DTD SVG 1.1//EN" "http://www.w3.org/Graphics/SVG/1.1/DTD/svg11.dtd">
<!-- Creator: CorelDRAW 2020 (64 Bit) -->
<svg xmlns="http://www.w3.org/2000/svg" xml:space="preserve" width="1000px" height="282px" version="1.1" shape-rendering="geometricPrecision" text-rendering="geometricPrecision" image-rendering="optimizeQuality" fill-rule="evenodd" clip-rule="evenodd"
viewBox="0 0 1000 281.65"
 xmlns:xlink="http://www.w3.org/1999/xlink"
 xmlns:xodm="http://www.corel.com/coreldraw/odm/2003">
 <g id="Camada_x0020_1">
  <metadata id="CorelCorpID_0Corel-Layer"/>
  <path fill="#2E5499" fill-rule="nonzero" d="M235.75 165.96c-7.16,2.68 -11.6,-1.85 -13.31,-13.6 6.74,2.77 13.27,5.71 13.31,13.6zm0 -15.8c-7.16,2.69 -11.6,-1.85 -13.31,-13.6 6.74,2.77 13.27,5.71 13.31,13.6zm0 -15.8c-7.16,2.68 -11.6,-1.85 -13.31,-13.6 6.74,2.77 13.27,5.71 13.31,13.6zm0 -15.79c-7.16,2.68 -11.6,-1.86 -13.31,-13.61 6.74,2.78 13.27,5.71 13.31,13.61zm0 -15.81c-7.16,2.69 -11.6,-1.84 -13.31,-13.6 6.74,2.78 13.27,5.72 13.31,13.6zm0 -15.79c-7.16,2.68 -11.6,-1.85 -13.31,-13.6 6.74,2.77 13.27,5.71 13.31,13.6zm1.76 71.75c7.17,2.68 11.61,-1.85 13.31,-13.61 -6.74,2.78 -13.27,5.72 -13.31,13.61zm0 -15.8c7.17,2.68 11.61,-1.85 13.31,-13.6 -6.74,2.78 -13.27,5.71 -13.31,13.6zm0 -15.79c7.17,2.68 11.61,-1.85 13.31,-13.61 -6.74,2.77 -13.27,5.71 -13.31,13.61zm0 -15.8c7.17,2.67 11.61,-1.85 13.31,-13.61 -6.74,2.78 -13.27,5.71 -13.31,13.61zm0 -15.8c7.17,2.68 11.61,-1.86 13.31,-13.61 -6.74,2.78 -13.27,5.71 -13.31,13.61zm0 -15.8c7.17,2.69 11.61,-1.85 13.31,-13.61 -6.74,2.78 -13.27,5.72 -13.31,13.61zm-1.03 -7.17c-10.09,-8.15 -4.93,-18.73 0,-29.26 5.42,10.16 10.34,20.29 0,29.26zm-178.75 93.4c7.17,2.68 11.6,-1.85 13.31,-13.6 -6.74,2.77 -13.27,5.71 -13.31,13.6zm0 -15.8c7.17,2.69 11.6,-1.85 13.31,-13.6 -6.74,2.77 -13.27,5.71 -13.31,13.6zm0 -15.8c7.17,2.68 11.6,-1.85 13.31,-13.6 -6.74,2.77 -13.27,5.71 -13.31,13.6zm0 -15.79c7.17,2.68 11.6,-1.86 13.31,-13.61 -6.74,2.78 -13.27,5.71 -13.31,13.61zm0 -15.81c7.17,2.69 11.6,-1.84 13.31,-13.6 -6.74,2.78 -13.27,5.72 -13.31,13.6zm0 -15.79c7.17,2.68 11.6,-1.85 13.31,-13.6 -6.74,2.77 -13.27,5.71 -13.31,13.6zm-1.76 71.75c-7.17,2.68 -11.6,-1.85 -13.31,-13.61 6.74,2.78 13.27,5.72 13.31,13.61zm0 -15.8c-7.17,2.68 -11.6,-1.85 -13.31,-13.6 6.74,2.78 13.27,5.71 13.31,13.6zm0 -15.79c-7.17,2.68 -11.6,-1.85 -13.31,-13.61 6.74,2.77 13.27,5.71 13.31,13.61zm0 -15.8c-7.17,2.67 -11.6,-1.85 -13.31,-13.61 6.74,2.78 13.27,5.71 13.31,13.61zm0 -15.8c-7.17,2.68 -11.6,-1.86 -13.31,-13.61 6.74,2.78 13.27,5.71 13.31,13.61zm0 -15.8c-7.17,2.69 -11.6,-1.85 -13.31,-13.61 6.74,2.78 13.27,5.72 13.31,13.61zm1.03 -7.17c10.1,-8.15 4.93,-18.73 0,-29.26 -5.41,10.16 -10.34,20.29 0,29.26zm139.5 32.8l0 0 -8 -5.83 -7.99 5.83 3.07 -9.4 -8.01 -5.81 9.89 0.03 3.04 -9.42 3.04 9.42 9.9 -0.03 -8.02 5.81 3.08 9.4zm-37.83 -0.51l0 0 0 3.44 -20.85 0 0 -3.44 8.05 0 0 -2.26c-4.78,-1.09 -8.35,-5.35 -8.35,-10.46 0,-5.09 3.57,-9.36 8.35,-10.45l0 -2.56 -3.37 1.71 0 -3.75 11.56 0 0 3.75 -3.58 -1.74 0 2.56c4.84,1.03 8.48,5.33 8.48,10.48 0,5.16 -3.64,9.46 -8.48,10.49l0 2.23 8.19 0zm-43.8 0.51l0 0 -7.99 -5.83 -8 5.83 3.08 -9.4 -8.02 -5.81 9.89 0.03 3.05 -9.42 3.04 9.42 9.9 -0.03 -8.02 5.81 3.07 9.4zm-33.88 -38.94l0 51.21 133.4 0 0 -51.21 -133.4 0zm-1.07 -1.4l0 0 0 106.74c0,12.95 7.18,27.08 19.22,37.79 13.43,11.94 31.35,18.52 50.46,18.52 15.68,0 32.25,-6.62 45.45,-18.14 12.78,-11.17 20.42,-25.43 20.42,-38.17l0 -106.74 -135.55 0zm69.68 164.2c-19.4,0 -37.59,-6.68 -51.23,-18.81 -12.28,-10.92 -19.61,-25.37 -19.61,-38.65l0 -107.9 137.86 0 0 107.9c0,13.07 -7.77,27.66 -20.81,39.04 -13.41,11.7 -30.25,18.42 -46.21,18.42zm88.2 -55.14l-2.19 0 0 -106.64 2.19 0 0 106.64zm-182.12 0l2.19 0 0 -106.64 -2.19 0 0 106.64zm33.71 22.31c-0.17,-0.24 -0.34,-0.48 -0.49,-0.72 0.15,0.24 0.32,0.48 0.49,0.72zm1.35 1.96c0.01,0 0.01,0 0.01,0 -0.06,-0.09 -0.12,-0.17 -0.19,-0.25 0.07,0.08 0.12,0.16 0.18,0.25zm-2.92 -4.44c-0.15,-0.24 -0.3,-0.48 -0.44,-0.73 0.14,0.25 0.29,0.49 0.44,0.73zm115.64 5.27c0.13,-0.18 0.26,-0.35 0.38,-0.53 -0.12,0.18 -0.26,0.35 -0.4,0.52 0,0 0.01,0 0.02,0.01zm-117.1 -7.86c-0.11,-0.21 -0.23,-0.42 -0.34,-0.64 0.11,0.22 0.23,0.43 0.34,0.64zm123.65 -2.54c0.02,-0.06 0.07,-0.12 0.09,-0.18 -0.02,0.06 -0.07,0.12 -0.09,0.18zm-2.73 4.92c-0.21,0.34 -0.43,0.68 -0.65,1.01 0.22,-0.33 0.44,-0.67 0.65,-1.01zm-1.64 2.5c-0.25,0.35 -0.5,0.71 -0.75,1.06 0.25,-0.35 0.5,-0.71 0.75,-1.06zm3.13 -5.04c-0.16,0.29 -0.33,0.58 -0.5,0.87 0.17,-0.29 0.34,-0.58 0.5,-0.87zm-3.88 6.1c-0.34,0.47 -0.69,0.94 -1.05,1.39 0.36,-0.45 0.71,-0.92 1.05,-1.39zm5.12 -8.48c-0.39,0.8 -0.8,1.59 -1.24,2.38 0.44,-0.79 0.85,-1.58 1.24,-2.38zm-61.78 17.8c-21.3,-0.28 -41.5,-11.4 -57.48,-8.23 11.48,15.74 32.37,28.32 58.8,28.32 21.04,0 41.73,-11.95 53.89,-27.5 -16.97,-4.09 -36.57,7.66 -55.21,7.41zm1.09 -11.48c23.25,0.25 46.36,-11.74 60.78,-6.5 2.75,-5.72 4.29,-11.65 4.29,-17.45l-133.4 0c0,6.4 1.76,13.1 5.03,19.53 -0.43,-0.82 -0.82,-1.67 -1.2,-2.51 13.26,-5.26 38.94,6.66 64.5,6.93zm-61.94 -1.92c-0.36,-0.61 -0.69,-1.24 -1.02,-1.86 0.33,0.62 0.66,1.25 1.02,1.86zm119.25 1.53c-0.32,0.5 -0.64,1 -0.99,1.49 0.35,-0.49 0.67,-0.99 0.99,-1.49zm-116.07 3.39c-0.4,-0.57 -0.79,-1.14 -1.17,-1.71 0.38,0.57 0.77,1.14 1.17,1.71zm117.71 -6.07c-0.32,0.56 -0.64,1.12 -0.99,1.67 0.35,-0.55 0.67,-1.11 0.99,-1.67zm-119.37 3.64c-0.38,-0.59 -0.73,-1.17 -1.08,-1.76 0.35,0.59 0.7,1.17 1.08,1.76zm-7.91 -25.19l66.7 -0.1 -66.7 0 0 -2.67 0 2.77zm133.4 -0.2l-66.7 0.1 66.7 0 0 -0.1zm-39.05 -17.99l0.58 1.6 0.15 2.34 3.51 -1.6 3.08 -2.2 4.97 -0.58 6.58 -2.05 4.39 -3.22 6 0 9.79 -9.36 0 -18.43 -133.4 0 0 48.92 3.36 -3.28 4.25 -2.05 3.36 -3.22 2.49 -1.75 2.33 -1.02 0.59 -2.06 2.93 0.59 0.72 1.9 1.9 1.31 -0.28 1.61 3.51 2.93 2.77 3.95 3.22 -1.61 3.81 -4.39 0.44 -4.09 1.6 -0.88 4.1 2.63 4.1 2.93 5.12 1.75 5.85 -1.02 9.22 -9.95 3.66 -3.36 3.35 -0.45 2.35 -1.74 2.78 -1.33 3.51 -8.04 0.29 -4.83 1.02 -2.34 0.44 -3.36 2.49 -2.92 2.64 2.48 0.29 5.27 -0.15 8.34 1.31 1.75 0 5.85 4.98 4.98zm24.64 -92.11l10.7 -17.77c-3.56,5.92 -7.13,11.85 -10.7,17.77l0 0zm-16.91 -23.47l0 0 -4.62 14.96 -9.78 -3.02 4.61 -14.96c0.83,-2.69 3.71,-4.21 6.4,-3.38 2.69,0.83 4.22,3.71 3.39,6.4zm-31.57 9.08l0 0 -10.24 0 0 -15.65c0,-2.82 2.3,-5.12 5.12,-5.12 2.81,0 5.12,2.3 5.12,5.12l0 15.65zm-37.82 5.88l0 0 -4.62 -14.96c-0.82,-2.69 0.69,-5.57 3.38,-6.4 2.7,-0.83 5.58,0.69 6.41,3.38l4.61 14.96 -9.78 3.02zm-19.99 8.21l0 0 -10.54 -17.89c2.43,-1.31 5.49,-0.44 6.87,1.97l7.75 13.6 -4.08 2.32zm129.77 -39.25c-1.94,1.07 -3.89,2.15 -5.85,3.22 0.34,-2.05 0.69,-4.09 1.02,-6.14 -1.9,-0.93 -3.79,-1.85 -5.7,-2.78 -2.24,5.32 -4.48,10.63 -6.72,15.94 0.39,1.56 0.77,3.13 1.17,4.68 -5.26,-2.54 -10,-4.34 -15.66,-5.84 1.66,-0.79 3.32,-1.56 4.98,-2.35 1.95,-4.92 3.9,-9.85 5.85,-14.77 -1.95,-0.78 -3.9,-1.56 -5.85,-2.34 -1.47,1.61 -2.93,3.21 -4.39,4.82 -0.15,-2.19 -0.29,-4.38 -0.44,-6.58 -1.9,-0.63 -3.8,-1.27 -5.7,-1.9 -1.91,1.75 -3.81,3.51 -5.72,5.27 -0.09,-2.35 -0.19,-4.69 -0.28,-7.02 -1.81,-0.44 -3.61,-0.88 -5.41,-1.32 -1.47,5.27 -2.93,10.53 -4.4,15.8 1.08,1.71 2.15,3.41 3.22,5.12 -6.11,-2.27 -11.04,-2.93 -17.55,-3.08 1.16,-1.11 2.34,-2.24 3.51,-3.36 0.79,-5.79 1.56,-11.59 2.34,-17.37 -2,0 -4,0 -5.99,0 -0.98,1.93 -1.96,3.88 -2.93,5.81 -0.98,-1.93 -1.95,-3.88 -2.92,-5.81 -1.81,0 -3.62,0 -5.42,0 -1.12,1.93 -2.24,3.88 -3.36,5.81 -1.23,-1.93 -2.45,-3.88 -3.66,-5.81 -1.81,0 -3.61,0 -5.41,0 0.29,5.78 0.58,11.58 0.88,17.37 1.22,1.32 2.43,2.63 3.65,3.95 -6.33,0 -11.08,1.08 -17.12,2.92 1.08,-1.41 2.15,-2.82 3.22,-4.24 -1.12,-5.9 -2.24,-11.8 -3.36,-17.69 -2.05,0.53 -4.1,1.07 -6.14,1.6 -0.25,2.35 -0.49,4.68 -0.74,7.02 -1.71,-1.85 -3.41,-3.7 -5.12,-5.56 -1.9,0.69 -3.8,1.37 -5.7,2.05 -0.34,2.3 -0.68,4.59 -1.02,6.88 -1.42,-1.66 -2.83,-3.32 -4.24,-4.98 -1.71,0.83 -3.42,1.66 -5.13,2.49 2.05,5.17 4.1,10.34 6.14,15.51 1.42,0.54 2.83,1.07 4.25,1.6 -5.21,2.12 -10.35,4.38 -15.51,6.59 0.63,-1.61 1.27,-3.22 1.91,-4.83 -1.91,-5.12 -3.81,-10.24 -5.71,-15.36 -2.38,1.47 -4.77,2.93 -7.17,4.39 0.05,1.51 0.1,3.02 0.15,4.53 -1.03,-0.92 -2.05,-1.85 -3.07,-2.77 -1.91,1.31 -3.8,2.63 -5.71,3.94 2.88,4.05 5.76,8.1 8.63,12.15 2.05,0.29 4.1,0.58 6.15,0.87 5.16,8.78 10.33,17.56 15.5,26.34 32.78,-14.25 65.96,-17.75 99.92,0 1.04,-1.75 2.09,-3.48 3.13,-5.22l-4.59 -2.62 7.76 -13.6c1.39,-2.44 4.53,-3.31 6.98,-1.91 0.2,0.11 0.38,0.23 0.55,0.36 0.7,-1.17 1.4,-2.33 2.1,-3.49 2.1,-0.34 4.2,-0.68 6.3,-1.02 3.36,-5.03 6.72,-10.05 10.09,-15.08 -1.9,-0.72 -3.8,-1.46 -5.71,-2.19zm28.98 200.91c-0.1,-5.66 -3.08,-7.16 -5.82,-10.63 -3.25,-4.13 -4.65,-3.69 -6.48,-1.89l0.06 0.02c2.31,8.3 1.62,9.62 -0.87,15.64l0.01 0 12 2.13 1.1 -5.27zm4.11 16.32c-0.24,-0.39 -0.59,-0.68 -1.06,-0.92 -0.33,-0.17 -1.04,-0.39 -2.09,-0.65l-1.17 -0.29 -2.14 8.5 1.93 0.49c0.73,0.18 1.26,0.28 1.61,0.28 0.45,0 0.84,-0.09 1.18,-0.28 0.34,-0.18 0.67,-0.53 0.99,-1.06 0.32,-0.54 0.61,-1.3 0.86,-2.3 0.25,-0.99 0.36,-1.77 0.31,-2.35 -0.04,-0.57 -0.18,-1.05 -0.42,-1.42zm-29.79 12.49l0 0 -7.18 -7.57 5.26 9.38 -1.87 1.77 -9.08 -5.76 7.18 7.57 -1.81 1.7 -9.11 -9.61 2.91 -2.76 7.96 4.91 -4.49 -8.19 2.91 -2.76 9.11 9.61 -1.79 1.71zm-24.99 15.81l0 0c-0.16,0.58 -0.47,1.12 -0.93,1.65 -0.47,0.53 -1.19,1.01 -2.14,1.47 -1.13,0.56 -2.06,0.84 -2.77,0.86 -0.72,0.02 -1.35,-0.09 -1.9,-0.35 -0.53,-0.25 -0.98,-0.58 -1.31,-1 -0.49,-0.6 -1.05,-1.57 -1.7,-2.91l-3.07 -6.37 2.41 -1.16 3.12 6.46c0.49,1.03 0.85,1.68 1.05,1.95 0.34,0.45 0.78,0.72 1.31,0.82 0.53,0.11 1.13,0 1.8,-0.32 0.69,-0.33 1.13,-0.72 1.35,-1.17 0.21,-0.44 0.25,-0.89 0.13,-1.32 -0.13,-0.45 -0.43,-1.14 -0.88,-2.09l-3.19 -6.6 2.41 -1.16 3.03 6.27c0.69,1.43 1.12,2.47 1.27,3.12 0.16,0.66 0.16,1.27 0.01,1.85zm-29.57 11.25l0 0 -2.66 0.34 -1.4 -10.92 -3.9 0.51 -0.29 -2.23 10.45 -1.35 0.28 2.22 -3.89 0.51 1.41 10.92zm-22.97 2.33l0 0 -2.68 0 0 -13.25 2.68 0 0 13.25zm-19.38 -10.31l0 0 -2.63 -0.59c0.08,-0.67 -0.04,-1.28 -0.36,-1.83 -0.33,-0.55 -0.85,-0.98 -1.56,-1.28 -1.07,-0.46 -2.07,-0.48 -3,-0.07 -0.93,0.41 -1.68,1.28 -2.25,2.63 -0.61,1.44 -0.76,2.67 -0.42,3.67 0.33,0.99 1.02,1.71 2.06,2.16 0.52,0.21 1.08,0.34 1.68,0.36 0.6,0.02 1.15,-0.04 1.65,-0.17l0.66 -1.55 -2.81 -1.2 0.88 -2.06 5.3 2.28 -2.08 4.84c-0.73,0.29 -1.66,0.4 -2.8,0.37 -1.14,-0.04 -2.22,-0.28 -3.21,-0.7 -1.28,-0.55 -2.28,-1.29 -3,-2.23 -0.72,-0.94 -1.1,-2.01 -1.16,-3.21 -0.04,-1.2 0.18,-2.37 0.67,-3.54 0.54,-1.28 1.3,-2.29 2.25,-3.05 0.95,-0.75 2.05,-1.18 3.3,-1.27 0.95,-0.07 2.02,0.14 3.17,0.64 1.52,0.64 2.57,1.46 3.15,2.46 0.58,1 0.75,2.11 0.51,3.34zm-30.89 -0.57l0 0 -2.46 -1.05 5.24 -12.18 2.46 1.06 -5.24 12.17zm-12.58 -18.91l0 0c-0.31,0.84 -0.85,1.75 -1.62,2.73 -0.68,0.85 -1.38,1.49 -2.09,1.94 -0.86,0.55 -1.71,0.86 -2.56,0.94 -0.65,0.07 -1.36,-0.05 -2.13,-0.34 -0.58,-0.23 -1.26,-0.65 -2.03,-1.27l-3.93 -3.14 8.28 -10.35 3.82 3.06c0.86,0.69 1.47,1.27 1.81,1.77 0.46,0.66 0.73,1.4 0.79,2.2 0.08,0.8 -0.04,1.63 -0.34,2.46zm149.26 -36.78c-2.45,1.66 -3.91,4.31 -5.64,7.01 -15.29,23.91 -49.22,40.55 -80.92,40.89 -50.08,0.55 -70.23,-23.52 -89.94,-52.76 -3.47,-5.15 -5.52,-3.46 -10.81,3.24 -3.77,4.79 0.06,11.62 1.37,17.05l11.04 -2.61c-2.49,-6.02 -8.3,-8 -5.99,-16.31l1.25 -0.46c-3.41,7.97 3.53,10.28 5.59,16.72 0.54,1.69 0.35,16.56 0.56,18.4 17.28,24.25 52.99,37.71 87.92,37.93 9.91,0.06 19.91,-0.68 30.49,-3.45 23.14,-6.05 45.84,-20 57.77,-37.65 0.69,-1.16 -0.34,-14.54 0.45,-16.98 1.95,-6.12 3.41,-7.52 0.65,-14.45 -0.98,1.04 -2.15,2.32 -3.79,3.43zm-185.1 27.12c0.44,-0.13 0.76,-0.36 0.98,-0.66 0.2,-0.31 0.26,-0.68 0.19,-1.1 -0.08,-0.4 -0.25,-0.7 -0.52,-0.91 -0.27,-0.21 -0.64,-0.3 -1.09,-0.27 -0.26,0.03 -1.01,0.15 -2.25,0.39l-1.51 0.28 0.58 3.01 1.72 -0.32c1.03,-0.2 1.66,-0.34 1.9,-0.42zm2.22 2.68c-0.25,-0.23 -0.55,-0.39 -0.94,-0.44 -0.38,-0.05 -1.17,0.03 -2.36,0.26l-2.13 0.42 0.67 3.47 2.43 -0.47c0.95,-0.18 1.55,-0.32 1.79,-0.42 0.37,-0.15 0.66,-0.38 0.86,-0.7 0.19,-0.32 0.24,-0.71 0.15,-1.18 -0.07,-0.39 -0.24,-0.7 -0.47,-0.94zm3.13 2.35l0 0c-0.17,0.62 -0.46,1.13 -0.87,1.56 -0.41,0.42 -0.96,0.74 -1.64,0.95 -0.44,0.13 -1.49,0.37 -3.16,0.7l-4.43 0.85 -2.49 -13.02 5.2 -1c1.03,-0.19 1.81,-0.3 2.33,-0.31 0.53,-0.01 1.01,0.09 1.46,0.28 0.46,0.19 0.85,0.49 1.2,0.89 0.36,0.41 0.59,0.89 0.7,1.45 0.11,0.61 0.06,1.2 -0.17,1.78 -0.23,0.57 -0.6,1.04 -1.11,1.4 0.82,0.08 1.52,0.35 2.04,0.82 0.54,0.48 0.88,1.1 1.02,1.85 0.12,0.58 0.09,1.19 -0.08,1.8zm-18.87 -1.86l0 0c0,1.6 -0.07,2.72 -0.22,3.37 -0.15,0.67 -0.41,1.22 -0.8,1.67 -0.39,0.45 -0.91,0.81 -1.55,1.08 -0.66,0.27 -1.51,0.4 -2.56,0.4 -1.27,0 -2.22,-0.14 -2.87,-0.43 -0.66,-0.3 -1.17,-0.69 -1.55,-1.15 -0.38,-0.46 -0.63,-0.96 -0.75,-1.47 -0.18,-0.75 -0.27,-1.87 -0.27,-3.36l0 -7.07 2.68 0 0 7.18c0,1.14 0.04,1.88 0.1,2.21 0.11,0.55 0.38,0.99 0.81,1.31 0.44,0.33 1.03,0.49 1.77,0.49 0.76,0 1.34,-0.14 1.72,-0.47 0.39,-0.3 0.62,-0.68 0.7,-1.13 0.08,-0.45 0.11,-1.21 0.11,-2.26l0 -7.33 2.68 0 0 6.96zm-16.25 -3.56l0 0 -2.66 -0.3c0,-0.69 -0.17,-1.21 -0.5,-1.56 -0.33,-0.35 -0.86,-0.59 -1.6,-0.7 -0.78,-0.12 -1.4,-0.06 -1.88,0.19 -0.31,0.16 -0.5,0.4 -0.55,0.75 -0.04,0.3 0.04,0.59 0.27,0.85 0.29,0.33 1.05,0.75 2.29,1.26 1.24,0.5 2.15,0.96 2.71,1.38 0.57,0.42 0.98,0.94 1.24,1.56 0.26,0.62 0.33,1.34 0.2,2.16 -0.12,0.75 -0.44,1.43 -0.96,2.01 -0.52,0.59 -1.18,0.99 -2,1.19 -0.81,0.2 -1.78,0.21 -2.91,0.03 -1.66,-0.25 -2.88,-0.83 -3.64,-1.74 -0.77,-0.9 -1.13,-2.1 -1.07,-3.59l2.62 0.15c0.01,0.89 0.23,1.57 0.63,2.05 0.41,0.47 1.02,0.78 1.83,0.91 0.85,0.13 1.52,0.04 2.01,-0.25 0.48,-0.29 0.77,-0.68 0.84,-1.16 0.06,-0.31 0,-0.59 -0.15,-0.83 -0.14,-0.25 -0.43,-0.49 -0.86,-0.71 -0.29,-0.16 -0.97,-0.46 -2.03,-0.91 -1.36,-0.57 -2.29,-1.16 -2.78,-1.76 -0.69,-0.84 -0.95,-1.78 -0.8,-2.82 0.11,-0.67 0.4,-1.26 0.87,-1.79 0.46,-0.51 1.07,-0.87 1.83,-1.07 0.76,-0.19 1.64,-0.2 2.65,-0.05 1.66,0.26 2.83,0.82 3.54,1.66 0.72,0.85 1.01,1.88 0.86,3.09zm26.07 -9.5c-18.19,2.97 -28.87,0.87 -46.07,-3.7l5.46 12.29 -6.23 8.4c20.95,6.86 40.64,7.63 61.18,1.12l-0.21 -21.39 -14.13 3.28zm236.47 17.49l0 0 -1.36 -13.18 2.66 -0.28 1.36 13.18 -2.66 0.28zm-9.16 1.28l0 0 -10.08 0 0 -13.25 9.82 0 0 2.24 -7.14 0 0 2.94 6.64 0 0 2.23 -6.64 0 0 3.61 7.4 0 0 2.23zm-14.84 -6.74l0 0c-0.27,1.06 -0.63,1.94 -1.08,2.63 -0.56,0.86 -1.21,1.5 -1.95,1.92 -0.56,0.33 -1.25,0.52 -2.08,0.57 -0.62,0.04 -1.4,-0.06 -2.37,-0.31l-4.88 -1.23 3.24 -12.84 4.74 1.19c1.06,0.27 1.87,0.55 2.38,0.86 0.7,0.41 1.25,0.97 1.64,1.68 0.4,0.69 0.63,1.49 0.71,2.38 0.07,0.89 -0.04,1.94 -0.35,3.15zm34.38 -5.89l5.26 -11.15c-17.68,3.36 -29.87,4.75 -47.76,2.53l-11.79 -2.18 0.38 21.24c20.64,4.7 39.32,3.94 60.18,-1.42l-6.27 -9.02zm-54.26 -26.8c0.25,-0.26 0.48,-0.5 0.71,-0.72l-1.19 -0.45c0.18,0.42 0.33,0.8 0.48,1.17zm-157.5 34.89l-0.94 -0.74 -5.48 6.85 1.56 1.25c0.58,0.46 1.02,0.77 1.34,0.91 0.41,0.18 0.8,0.26 1.19,0.24 0.38,-0.02 0.83,-0.21 1.34,-0.56 0.51,-0.35 1.09,-0.93 1.73,-1.72 0.64,-0.81 1.06,-1.48 1.26,-2.02 0.2,-0.54 0.28,-1.03 0.21,-1.47 -0.06,-0.45 -0.26,-0.87 -0.58,-1.26 -0.23,-0.31 -0.78,-0.8 -1.63,-1.48zm191.3 -35.59c-0.4,0 -0.74,0.16 -1.02,0.48 -0.26,0.32 -0.41,0.86 -0.41,1.59 0,0.75 0.15,1.3 0.45,1.65 0.29,0.35 0.67,0.53 1.11,0.53 0.42,0 0.78,-0.17 1.07,-0.51 0.3,-0.33 0.44,-0.83 0.44,-1.49 0,-0.71 -0.16,-1.27 -0.49,-1.66 -0.33,-0.4 -0.71,-0.59 -1.15,-0.59zm-8.66 4.48c-0.54,0 -0.94,0.2 -1.21,0.56 -0.27,0.38 -0.4,0.79 -0.4,1.22 0,0.61 0.16,1.09 0.47,1.43 0.31,0.34 0.71,0.51 1.17,0.51 0.46,0 0.84,-0.16 1.14,-0.49 0.3,-0.32 0.45,-0.8 0.45,-1.42 0,-0.55 -0.15,-0.98 -0.46,-1.31 -0.3,-0.33 -0.69,-0.5 -1.16,-0.5zm19.91 5.31l0 0 -2.22 0 0 -8.37c-0.81,0.76 -1.77,1.32 -2.87,1.68l0 -2.01c0.58,-0.19 1.2,-0.54 1.89,-1.08 0.68,-0.53 1.15,-1.15 1.4,-1.85l1.8 0 0 11.63zm-8.3 -1.21l0 0c-0.78,0.94 -1.8,1.41 -3.06,1.41 -0.91,0 -1.64,-0.24 -2.2,-0.72 -0.55,-0.48 -0.91,-1.21 -1.07,-2.17l2.15 -0.23c0.05,0.43 0.19,0.76 0.41,0.97 0.22,0.21 0.51,0.32 0.87,0.32 0.46,0 0.85,-0.21 1.17,-0.63 0.32,-0.43 0.53,-1.3 0.62,-2.63 -0.56,0.65 -1.25,0.97 -2.09,0.97 -0.91,0 -1.7,-0.35 -2.36,-1.05 -0.66,-0.7 -0.99,-1.62 -0.99,-2.75 0,-1.17 0.35,-2.12 1.05,-2.84 0.69,-0.71 1.58,-1.07 2.66,-1.07 1.17,0 2.14,0.45 2.9,1.36 0.75,0.91 1.12,2.4 1.12,4.48 0,2.12 -0.39,3.65 -1.18,4.58zm-8.82 0.41l0 0c-0.68,0.66 -1.58,1 -2.71,1 -1.07,0 -1.94,-0.27 -2.64,-0.83 -0.82,-0.65 -1.24,-1.55 -1.24,-2.68 0,-0.63 0.16,-1.21 0.47,-1.73 0.31,-0.52 0.8,-0.93 1.46,-1.21 -0.57,-0.24 -0.98,-0.58 -1.24,-1 -0.27,-0.43 -0.39,-0.89 -0.39,-1.4 0,-0.86 0.3,-1.57 0.9,-2.14 0.6,-0.56 1.46,-0.84 2.58,-0.84 1.09,0 1.95,0.28 2.55,0.84 0.61,0.57 0.92,1.28 0.92,2.14 0,0.54 -0.14,1.02 -0.42,1.44 -0.28,0.42 -0.67,0.74 -1.18,0.96 0.64,0.25 1.13,0.64 1.46,1.13 0.34,0.49 0.51,1.06 0.51,1.71 0,1.07 -0.34,1.94 -1.03,2.61zm-9.87 0.8l0 0 -2.22 0 0 -8.37c-0.82,0.76 -1.77,1.32 -2.87,1.68l0 -2.01c0.58,-0.19 1.2,-0.54 1.89,-1.08 0.68,-0.53 1.15,-1.15 1.39,-1.85l1.81 0 0 11.63zm31.4 -7.85l5.29 -12.72c-17.61,3.81 -27.92,4.31 -45.74,1.79l-12.4 -3.23 -0.5 2.95 0.14 18.77c20.57,5.34 38.42,6.89 59.2,0.81l-5.99 -8.37zm-24.34 0.77c0.41,0 0.74,-0.13 1,-0.38 0.25,-0.25 0.38,-0.59 0.38,-1.04 0,-0.41 -0.12,-0.74 -0.38,-1 -0.24,-0.25 -0.58,-0.37 -0.99,-0.37 -0.42,0 -0.76,0.13 -1.02,0.37 -0.25,0.26 -0.37,0.59 -0.37,1.01 0,0.45 0.12,0.79 0.37,1.04 0.25,0.24 0.58,0.37 1.01,0.37zm-241.62 0.27c0.42,0 0.74,-0.13 0.99,-0.37 0.25,-0.25 0.36,-0.58 0.36,-1.01 0,-0.41 -0.11,-0.74 -0.35,-0.98 -0.25,-0.25 -0.57,-0.36 -0.98,-0.36 -0.41,0 -0.74,0.12 -0.98,0.36 -0.26,0.25 -0.37,0.57 -0.37,0.98 0,0.43 0.11,0.77 0.36,1.01 0.24,0.24 0.57,0.37 0.97,0.37zm0.04 1.72c-0.53,0 -0.93,0.19 -1.18,0.55 -0.27,0.37 -0.4,0.76 -0.4,1.18 0,0.61 0.16,1.07 0.46,1.4 0.31,0.34 0.69,0.5 1.14,0.5 0.45,0 0.82,-0.16 1.11,-0.48 0.3,-0.32 0.44,-0.78 0.44,-1.39 0,-0.53 -0.14,-0.95 -0.44,-1.28 -0.3,-0.31 -0.68,-0.48 -1.13,-0.48zm147.92 25.77c-0.35,-0.24 -0.74,-0.34 -1.18,-0.31 -0.32,0.02 -0.96,0.15 -1.89,0.37l-1.25 0.31 0.91 3.65 1.41 -0.35c1.03,-0.26 1.7,-0.5 2.01,-0.71 0.31,-0.22 0.53,-0.5 0.66,-0.84 0.11,-0.33 0.13,-0.69 0.04,-1.07 -0.12,-0.47 -0.36,-0.82 -0.71,-1.05zm-68.68 -10.35l-1.78 -1.1 -1.77 2.84 1.68 1.05c1.09,0.68 1.79,1.06 2.12,1.14 0.33,0.08 0.64,0.05 0.94,-0.08 0.29,-0.13 0.54,-0.36 0.75,-0.7 0.24,-0.38 0.32,-0.75 0.27,-1.11 -0.06,-0.35 -0.25,-0.68 -0.58,-0.97 -0.17,-0.14 -0.71,-0.49 -1.63,-1.07zm51.68 13.68c-0.72,-0.69 -1.63,-1.01 -2.72,-0.93 -1.11,0.07 -1.96,0.52 -2.59,1.32 -0.62,0.8 -0.88,1.96 -0.77,3.48 0.1,1.5 0.53,2.61 1.28,3.34 0.74,0.72 1.65,1.04 2.71,0.97 1.06,-0.08 1.91,-0.52 2.54,-1.33 0.62,-0.83 0.89,-2 0.78,-3.52 -0.11,-1.52 -0.52,-2.62 -1.23,-3.33zm33.92 -9.87c-0.94,-0.38 -1.89,-0.33 -2.88,0.16 -1,0.49 -1.63,1.21 -1.91,2.19 -0.27,0.97 -0.08,2.15 0.6,3.52 0.65,1.34 1.47,2.21 2.43,2.6 0.96,0.4 1.92,0.36 2.88,-0.1 0.95,-0.47 1.57,-1.2 1.86,-2.19 0.27,-1 0.07,-2.18 -0.6,-3.56 -0.66,-1.37 -1.46,-2.24 -2.38,-2.62zm40.4 -23.77l0 0c-0.2,0.81 -0.66,1.68 -1.35,2.59 -1.01,1.35 -2.09,2.14 -3.25,2.39 -1.15,0.25 -2.38,0 -3.67,-0.76l1.37 -2.23c0.79,0.4 1.49,0.54 2.11,0.4 0.61,-0.14 1.16,-0.53 1.65,-1.18 0.52,-0.69 0.77,-1.31 0.74,-1.88 -0.03,-0.57 -0.24,-1 -0.63,-1.3 -0.25,-0.19 -0.51,-0.27 -0.8,-0.25 -0.29,0.01 -0.63,0.15 -1.04,0.42 -0.28,0.18 -0.86,0.64 -1.75,1.36 -1.15,0.93 -2.1,1.47 -2.87,1.62 -1.07,0.21 -2.02,0 -2.86,-0.63 -0.54,-0.41 -0.92,-0.94 -1.17,-1.6 -0.23,-0.66 -0.26,-1.36 -0.07,-2.13 0.19,-0.76 0.58,-1.54 1.2,-2.36 1,-1.32 2.04,-2.11 3.13,-2.34 1.09,-0.23 2.13,0.01 3.13,0.71l-1.51 2.2c-0.62,-0.32 -1.16,-0.42 -1.62,-0.29 -0.46,0.11 -0.93,0.48 -1.38,1.08 -0.46,0.62 -0.71,1.2 -0.71,1.75 -0.01,0.34 0.12,0.62 0.4,0.83 0.25,0.19 0.54,0.24 0.87,0.17 0.44,-0.1 1.17,-0.58 2.2,-1.44 1.02,-0.85 1.86,-1.43 2.49,-1.73 0.64,-0.3 1.29,-0.42 1.97,-0.35 0.66,0.06 1.33,0.34 2,0.84 0.61,0.46 1.05,1.05 1.31,1.79 0.28,0.74 0.32,1.51 0.11,2.32zm-12.16 14.97l0 0 -9.38 -9.36 1.9 -1.89 9.37 9.36 -1.89 1.89zm-13.39 11.34l0 0 -7.91 -10.5 2.14 -1.61 6.56 8.72 5.31 -4.01 1.35 1.78 -7.45 5.62zm-9.32 4.2l0 0c-0.52,1.6 -1.65,2.82 -3.4,3.68 -1.77,0.86 -3.45,1 -5.01,0.43 -1.58,-0.57 -2.82,-1.8 -3.75,-3.69 -0.6,-1.22 -0.91,-2.33 -0.95,-3.33 -0.02,-0.73 0.08,-1.46 0.32,-2.17 0.23,-0.71 0.57,-1.32 1.01,-1.82 0.59,-0.68 1.37,-1.25 2.34,-1.73 1.76,-0.85 3.42,-0.99 5.01,-0.42 1.58,0.57 2.85,1.83 3.8,3.77 0.93,1.93 1.14,3.69 0.63,5.28zm-19.01 2.25l0 0c-0.15,0.6 -0.41,1.12 -0.78,1.54 -0.36,0.41 -0.76,0.73 -1.2,0.94 -0.58,0.28 -1.46,0.56 -2.64,0.86l-1.69 0.42 1.21 4.85 -2.59 0.65 -3.22 -12.86 4.17 -1.04c1.58,-0.39 2.62,-0.58 3.14,-0.58 0.79,0.01 1.51,0.28 2.16,0.8 0.66,0.53 1.12,1.3 1.37,2.32 0.2,0.79 0.22,1.49 0.07,2.1zm-17.84 9.2l0 0c-1.07,1.29 -2.58,2 -4.52,2.13 -1.97,0.15 -3.58,-0.35 -4.82,-1.46 -1.24,-1.12 -1.94,-2.73 -2.08,-4.84 -0.1,-1.35 0.02,-2.49 0.36,-3.43 0.26,-0.69 0.63,-1.33 1.11,-1.9 0.48,-0.56 1.02,-1.01 1.62,-1.31 0.8,-0.4 1.74,-0.64 2.82,-0.71 1.95,-0.15 3.55,0.35 4.79,1.48 1.26,1.13 1.96,2.77 2.11,4.91 0.15,2.14 -0.31,3.85 -1.39,5.13zm-17.97 -7.57l0 0 -2.65 -0.35c0.01,-0.69 -0.16,-1.21 -0.48,-1.57 -0.32,-0.36 -0.85,-0.61 -1.59,-0.73 -0.76,-0.14 -1.39,-0.09 -1.89,0.15 -0.3,0.15 -0.49,0.39 -0.55,0.73 -0.05,0.31 0.03,0.6 0.25,0.86 0.28,0.34 1.04,0.77 2.27,1.3 1.24,0.53 2.12,1.01 2.68,1.44 0.55,0.43 0.96,0.96 1.21,1.58 0.25,0.63 0.3,1.35 0.16,2.18 -0.14,0.74 -0.47,1.4 -1,1.98 -0.54,0.58 -1.2,0.97 -2.02,1.15 -0.81,0.18 -1.79,0.17 -2.93,-0.02 -1.64,-0.3 -2.85,-0.9 -3.6,-1.82 -0.75,-0.91 -1.08,-2.12 -0.99,-3.61l2.61 0.2c0,0.89 0.2,1.58 0.6,2.06 0.4,0.49 1,0.8 1.8,0.94 0.85,0.15 1.52,0.09 2.02,-0.2 0.49,-0.28 0.78,-0.66 0.87,-1.14 0.05,-0.31 0.01,-0.59 -0.14,-0.83 -0.14,-0.26 -0.42,-0.5 -0.85,-0.74 -0.29,-0.16 -0.95,-0.47 -2.01,-0.94 -1.35,-0.6 -2.26,-1.21 -2.74,-1.82 -0.67,-0.86 -0.92,-1.81 -0.74,-2.84 0.12,-0.66 0.41,-1.25 0.89,-1.76 0.48,-0.51 1.1,-0.86 1.87,-1.04 0.76,-0.17 1.64,-0.17 2.64,0 1.64,0.29 2.81,0.87 3.51,1.73 0.7,0.87 0.97,1.9 0.8,3.11zm-15.79 -4.8l0 0 -6.67 -2.57 -1.06 2.75 6.21 2.38 -0.8 2.09 -6.21 -2.39 -1.29 3.37 6.91 2.65 -0.8 2.09 -9.41 -3.61 4.75 -12.37 9.18 3.51 -0.81 2.1zm-16.16 -5.17l0 0c-0.52,0.84 -1.2,1.39 -2.04,1.63 -0.83,0.24 -1.8,0.12 -2.88,-0.35 0.32,0.59 0.53,1.16 0.63,1.7 0.11,0.55 0.16,1.42 0.15,2.63l0.01 3.05 -2.71 -1.69 -0.12 -3.47c-0.04,-1.24 -0.09,-2.04 -0.16,-2.4 -0.07,-0.36 -0.21,-0.66 -0.4,-0.9 -0.18,-0.23 -0.53,-0.51 -1.06,-0.84l-0.46 -0.28 -2.93 4.69 -2.27 -1.42 7.02 -11.24 4.78 2.99c1.2,0.75 2.01,1.4 2.43,1.94 0.42,0.54 0.63,1.17 0.64,1.89 0,0.73 -0.21,1.41 -0.63,2.07zm-17.58 -7.93l0 0 -4.78 -4.62 -2.51 2.6 5.33 5.14 -1.55 1.6 -7.25 -7 9.2 -9.53 7.07 6.82 -1.56 1.62 -5.15 -4.97 -2.03 2.12 4.79 4.62 -1.56 1.6zm-18.03 -11.77l0 0 -1.45 -2.25 9.23 -6 -2.14 -3.29 1.88 -1.23 5.74 8.84 -1.89 1.22 -2.13 -3.29 -9.24 6zm79.41 22.51l0 0 2.84 -0.2 -2.29 2.87 -1.6 0.11 1.05 -2.78zm88.79 -63.05l1.25 0.53c2.3,9.43 -1.67,14.78 -4.14,21.63l12.32 3.25 0.8 -7.08c-0.1,-6.44 0.15,-11.72 -2.59,-15.68 -5.26,-7.62 -11.81,-7.71 -17.11,-3.61 -2.44,1.89 -4.15,4.73 -5.61,7.97 -10.92,24.27 -25.65,41.43 -51.78,51.2 -7.46,2.49 -15.16,3.78 -22.83,3.88 -27.72,0.35 -58.27,-16.26 -73.59,-48.07 -2.61,-5.67 -5.46,-11.1 -9.53,-14.24 -5.3,-4.11 -11.85,-4.02 -17.11,3.61 -2.74,3.96 -2.49,9.24 -2.59,15.67l0.81 7.08 12.32 -3.25c-2.48,-6.85 -6.45,-12.19 -4.15,-21.63l1.25 -0.52c-3.4,9.06 1.4,14.26 3.46,21.59 0.54,1.92 0.63,5.71 0.85,7.8 3.43,5.5 6.27,11.25 10.73,16.32 2.72,3.09 5.57,5.97 8.53,8.65 35.92,35.07 94.55,36.37 134.01,1.75 4.95,-4.33 16.11,-17.52 20.06,-25.65 0.39,-0.73 0.01,-2.78 0.38,-3.52 0.21,-2.1 0.26,-4.16 0.81,-6.08 2.05,-7.33 6.85,-12.54 3.45,-21.6zm-195.5 44.23l0 0c-0.73,1 -1.76,1.5 -3.06,1.5 -1.04,0 -1.89,-0.28 -2.55,-0.84 -0.66,-0.56 -1.05,-1.32 -1.18,-2.26l2.16 -0.22c0.06,0.49 0.25,0.87 0.55,1.16 0.3,0.29 0.65,0.42 1.04,0.42 0.46,0 0.84,-0.18 1.15,-0.54 0.32,-0.37 0.47,-0.93 0.47,-1.67 0,-0.69 -0.15,-1.21 -0.47,-1.56 -0.31,-0.34 -0.71,-0.51 -1.21,-0.51 -0.62,0 -1.18,0.27 -1.67,0.82l-1.76 -0.26 1.11 -5.87 5.73 0 0 2.02 -4.08 0 -0.35 1.92c0.49,-0.24 0.98,-0.36 1.48,-0.36 0.97,0 1.78,0.35 2.45,1.04 0.66,0.7 1,1.61 1,2.72 0,0.93 -0.27,1.76 -0.81,2.49zm-8.77 0l0 0c-0.74,1 -1.76,1.5 -3.07,1.5 -1.04,0 -1.89,-0.28 -2.54,-0.84 -0.66,-0.56 -1.06,-1.32 -1.18,-2.26l2.15 -0.22c0.06,0.49 0.25,0.87 0.55,1.16 0.31,0.29 0.66,0.42 1.05,0.42 0.45,0 0.83,-0.18 1.14,-0.54 0.32,-0.37 0.48,-0.93 0.48,-1.67 0,-0.69 -0.16,-1.21 -0.47,-1.56 -0.31,-0.34 -0.71,-0.51 -1.21,-0.51 -0.62,0 -1.18,0.27 -1.68,0.82l-1.75 -0.26 1.11 -5.87 5.72 0 0 2.02 -4.08 0 -0.34 1.92c0.48,-0.24 0.97,-0.36 1.48,-0.36 0.96,0 1.77,0.35 2.44,1.04 0.67,0.7 1,1.61 1,2.72 0,0.93 -0.27,1.76 -0.8,2.49zm-9.2 0.53l0 0c-0.67,0.65 -1.55,0.97 -2.65,0.97 -1.03,0 -1.89,-0.26 -2.57,-0.8 -0.81,-0.64 -1.21,-1.52 -1.21,-2.63 0,-0.61 0.15,-1.16 0.46,-1.67 0.29,-0.52 0.77,-0.91 1.43,-1.19 -0.56,-0.23 -0.97,-0.56 -1.23,-0.98 -0.25,-0.41 -0.37,-0.86 -0.37,-1.35 0,-0.84 0.29,-1.54 0.88,-2.09 0.59,-0.55 1.42,-0.83 2.5,-0.83 1.08,0 1.91,0.28 2.51,0.83 0.6,0.55 0.88,1.25 0.88,2.09 0,0.52 -0.13,0.99 -0.41,1.4 -0.26,0.41 -0.65,0.72 -1.14,0.93 0.62,0.26 1.1,0.62 1.43,1.1 0.32,0.49 0.49,1.04 0.49,1.68 0,1.04 -0.34,1.88 -1,2.54zm-9.64 0.78l0 0 -2.16 0 0 -8.16c-0.79,0.73 -1.72,1.29 -2.79,1.64l0 -1.97c0.56,-0.18 1.18,-0.53 1.83,-1.05 0.67,-0.51 1.12,-1.12 1.37,-1.81l1.75 0 0 11.35zm31.55 -18.14c-17.83,2.52 -28.13,2.02 -45.75,-1.79l5.3 12.72 -5.99 8.37c20.78,6.09 38.63,4.53 59.2,-0.8l0.14 -18.78 -0.5 -2.95 -12.4 3.23zm893.32 -25l10.44 -12.48c6.67,5.32 14.12,8.12 21.95,8.12 5.03,0 7.74,-1.74 7.74,-4.64l0 -0.19c0,-2.81 -2.23,-4.35 -11.41,-6.48 -14.41,-3.29 -25.53,-7.35 -25.53,-21.27l0 -0.2c0,-12.57 9.96,-21.65 26.21,-21.65 11.5,0 20.49,3.09 27.84,8.99l-9.38 13.25c-6.18,-4.35 -12.95,-6.67 -18.95,-6.67 -4.54,0 -6.77,1.93 -6.77,4.34l0 0.2c0,3.09 2.33,4.45 11.7,6.58 15.57,3.38 25.24,8.41 25.24,21.07l0 0.19c0,13.83 -10.93,22.05 -27.36,22.05 -11.99,0 -23.4,-3.77 -31.72,-11.21zm-26.1 -57.63l18.85 0 0 67.68 -18.85 0 0 -67.68zm-59.95 0l18.76 0 0 51.24 32.77 0 0 16.44 -51.53 0 0 -67.68zm-28.92 34.03l0 0 0 -0.19c0,-9.77 -7.05,-18.27 -17.4,-18.27 -10.25,0 -17.11,8.31 -17.11,18.08l0 0.19c0,9.76 7.05,18.27 17.3,18.27 10.35,0 17.21,-8.31 17.21,-18.08zm-53.76 0l0 -0.19c0,-19.43 15.67,-35.2 36.55,-35.2 20.89,0 36.36,15.57 36.36,35.01l0 0.19c0,19.43 -15.66,35.19 -36.55,35.19 -20.88,0 -36.36,-15.56 -36.36,-35zm-35.09 -0.38l0 0c6.67,0 10.73,-3.49 10.73,-8.8l0 -0.2c0,-5.8 -4.06,-8.89 -10.83,-8.89l-8.8 0 0 17.89 8.9 0zm-27.65 -33.65l29 0c17.11,0 28.14,8.8 28.14,23.78l0 0.2c0,15.95 -12.28,24.36 -29.1,24.36l-9.29 0 0 19.34 -18.75 0 0 -67.68zm-42.74 -22.43l0 0 17.11 5.51 -14.21 12.37 -12.96 0 10.06 -17.88zm13.82 56.46l0 0 0 -0.19c0,-9.77 -7.06,-18.27 -17.4,-18.27 -10.25,0 -17.11,8.31 -17.11,18.08l0 0.19c0,9.76 7.05,18.27 17.31,18.27 10.34,0 17.2,-8.31 17.2,-18.08zm-53.75 0l0 -0.19c0,-19.43 15.66,-35.2 36.55,-35.2 20.88,0 36.35,15.57 36.35,35.01l0 0.19c0,19.43 -15.67,35.19 -36.55,35.19 -20.89,0 -36.35,-15.56 -36.35,-35zm-65.85 23.6l10.44 -12.48c6.67,5.32 14.12,8.12 21.95,8.12 5.03,0 7.74,-1.74 7.74,-4.64l0 -0.19c0,-2.81 -2.23,-4.35 -11.41,-6.48 -14.41,-3.29 -25.53,-7.35 -25.53,-21.27l0 -0.2c0,-12.57 9.96,-21.65 26.2,-21.65 11.51,0 20.5,3.09 27.85,8.99l-9.38 13.25c-6.19,-4.35 -12.96,-6.67 -18.95,-6.67 -4.55,0 -6.77,1.93 -6.77,4.34l0 0.2c0,3.09 2.32,4.45 11.7,6.58 15.57,3.38 25.24,8.41 25.24,21.07l0 0.19c0,13.83 -10.93,22.05 -27.37,22.05 -11.99,0 -23.4,-3.77 -31.71,-11.21zm-59.37 -57.63l54.44 0 0 15.95 -35.87 0 0 10.25 32.48 0 0 14.79 -32.48 0 0 10.74 36.36 0 0 15.95 -54.93 0 0 -67.68zm-38.39 32.48l0 0c6.39,0 10.06,-3.09 10.06,-8.02l0 -0.19c0,-5.32 -3.87,-8.03 -10.15,-8.03l-12.28 0 0 16.24 12.37 0zm-31.13 -32.48l32.01 0c10.34,0 17.5,2.71 22.04,7.35 3.96,3.87 6,9.08 6,15.76l0 0.19c0,10.35 -5.52,17.21 -13.93,20.79l16.15 23.59 -21.66 0 -13.63 -20.5 -0.19 0 -8.03 0 0 20.5 -18.76 0 0 -67.68zm-64.49 0l54.44 0 0 15.95 -35.87 0 0 10.25 32.48 0 0 14.79 -32.48 0 0 10.74 36.35 0 0 15.95 -54.92 0 0 -67.68zm-47.28 16.43l-20.31 0 0 -16.43 59.38 0 0 16.43 -20.31 0 0 51.25 -18.76 0 0 -51.25zm-18.43 -39.57l8.08 0 0 -11.02 6.14 0c8.24,0 14.85,-4.41 14.85,-12.91l0 -0.1c0,-7.51 -5.3,-12.7 -14.06,-12.7l-15.01 0 0 36.73zm8.08 -18.21l0 -11.23 6.25 0c4.04,0 6.55,1.94 6.55,5.56l0 0.11c0,3.15 -2.35,5.56 -6.4,5.56l-6.4 0zm26.98 18.21l8.08 0 0 -11.75 6.35 0 7.87 11.75 9.44 0 -8.97 -13.12c4.67,-1.73 7.87,-5.46 7.87,-11.39l0 -0.1c0,-3.46 -1.1,-6.35 -3.15,-8.4 -2.41,-2.41 -6.03,-3.72 -10.7,-3.72l-16.79 0 0 36.73zm8.08 -18.89l0 -10.55 8.03 0c3.93,0 6.34,1.79 6.34,5.25l0 0.1c0,3.1 -2.25,5.2 -6.19,5.2l-8.18 0zm29.85 18.89l27.97 0 0 -7.19 -19.94 0 0 -7.71 17.32 0 0 -7.19 -17.32 0 0 -7.45 19.68 0 0 -7.19 -27.71 0 0 36.73zm35.16 0l8.09 0 0 -14.22 17.52 0 0 -7.35 -17.52 0 0 -7.82 19.88 0 0 -7.34 -27.97 0 0 36.73zm34.43 0l27.97 0 0 -7.19 -19.94 0 0 -7.71 17.31 0 0 -7.19 -17.31 0 0 -7.45 19.68 0 0 -7.19 -27.71 0 0 36.73zm35.53 0l8.07 0 0 -36.73 -8.07 0 0 36.73zm25.81 0l8.08 0 0 -29.28 11.18 0 0 -7.45 -30.43 0 0 7.45 11.17 0 0 29.28zm40.78 0.58c9.86,0 16.11,-5.46 16.11,-16.58l0 -20.73 -8.09 0 0 21.04c0,5.82 -2.99,8.82 -7.92,8.82 -4.93,0 -7.92,-3.1 -7.92,-9.08l0 -20.78 -8.08 0 0 20.99c0,10.81 6.03,16.32 15.9,16.32zm24.35 -0.58l8.08 0 0 -11.75 6.34 0 7.88 11.75 9.44 0 -8.97 -13.12c4.67,-1.73 7.87,-5.46 7.87,-11.39l0 -0.1c0,-3.46 -1.1,-6.35 -3.15,-8.4 -2.41,-2.41 -6.03,-3.72 -10.7,-3.72l-16.79 0 0 36.73zm8.08 -18.89l0 -10.55 8.02 0c3.94,0 6.35,1.79 6.35,5.25l0 0.1c0,3.1 -2.25,5.2 -6.19,5.2l-8.18 0zm26.71 18.89l8.24 0 3.36 -8.24 15.53 0 3.35 8.24 8.45 0 -15.74 -37 -7.45 0 -15.74 37zm14.48 -15.38l4.88 -11.91 4.88 11.91 -9.76 0z"/>
 </g>
</svg>
